<svg xmlns="http://www.w3.org/2000/svg" xmlns:xlink="http://www.w3.org/1999/xlink" width="500" zoomAndPan="magnify" viewBox="0 0 375 374.999991" height="500" preserveAspectRatio="xMidYMid meet" version="1.0"><defs><clipPath id="b4fe4c52af"><path d="M 88 199 L 369 199 L 369 327 L 88 327 Z M 88 199 " clip-rule="nonzero"/></clipPath><clipPath id="0d8e60951e"><path d="M -66.28125 143.304688 L 78.769531 -46.019531 L 441.339844 231.765625 L 296.289062 421.085938 Z M -66.28125 143.304688 " clip-rule="nonzero"/></clipPath><clipPath id="3604b0f39f"><path d="M -66.28125 143.304688 L 78.769531 -46.019531 L 441.339844 231.765625 L 296.289062 421.085938 Z M -66.28125 143.304688 " clip-rule="nonzero"/></clipPath><clipPath id="8b79b32141"><path d="M 6 48 L 287 48 L 287 176 L 6 176 Z M 6 48 " clip-rule="nonzero"/></clipPath><clipPath id="517360eb4c"><path d="M -66.28125 143.304688 L 78.769531 -46.019531 L 441.339844 231.765625 L 296.289062 421.085938 Z M -66.28125 143.304688 " clip-rule="nonzero"/></clipPath><clipPath id="46c87d8985"><path d="M -66.28125 143.304688 L 78.769531 -46.019531 L 441.339844 231.765625 L 296.289062 421.085938 Z M -66.28125 143.304688 " clip-rule="nonzero"/></clipPath></defs><g clip-path="url(#b4fe4c52af)"><g clip-path="url(#0d8e60951e)"><g clip-path="url(#3604b0f39f)"><path fill="#7b2cbf" d="M 88.730469 199.824219 L 245.265625 200.90625 C 247.300781 200.917969 249.332031 200.984375 251.363281 201.097656 C 253.394531 201.210938 255.421875 201.375 257.445312 201.585938 C 259.46875 201.800781 261.484375 202.0625 263.496094 202.375 C 265.503906 202.6875 267.507812 203.050781 269.5 203.460938 C 271.492188 203.871094 273.472656 204.328125 275.445312 204.835938 C 277.414062 205.34375 279.371094 205.898438 281.3125 206.503906 C 283.253906 207.105469 285.183594 207.757812 287.09375 208.457031 C 289.003906 209.15625 290.898438 209.898438 292.769531 210.691406 C 294.644531 211.480469 296.5 212.316406 298.332031 213.199219 C 300.167969 214.082031 301.976562 215.007812 303.765625 215.980469 C 305.554688 216.949219 307.316406 217.964844 309.054688 219.023438 C 310.792969 220.078125 312.503906 221.179688 314.1875 222.320312 C 315.871094 223.460938 317.527344 224.644531 319.152344 225.867188 C 320.78125 227.089844 322.375 228.351562 323.9375 229.652344 C 325.503906 230.953125 327.035156 232.289062 328.535156 233.667969 C 330.03125 235.042969 331.496094 236.453125 332.925781 237.902344 C 334.355469 239.351562 335.75 240.832031 337.105469 242.347656 C 338.460938 243.863281 339.78125 245.414062 341.0625 246.992188 C 342.34375 248.574219 343.582031 250.1875 344.785156 251.828125 C 345.988281 253.46875 347.148438 255.140625 348.265625 256.839844 C 349.386719 258.535156 350.464844 260.261719 351.5 262.011719 C 352.535156 263.765625 353.523438 265.539062 354.472656 267.339844 C 355.421875 269.140625 356.324219 270.964844 357.183594 272.808594 C 358.042969 274.652344 358.855469 276.515625 359.621094 278.402344 C 360.386719 280.285156 361.109375 282.1875 361.78125 284.105469 C 362.457031 286.027344 363.082031 287.960938 363.660156 289.910156 C 364.238281 291.863281 364.769531 293.824219 365.25 295.800781 C 365.734375 297.777344 366.167969 299.765625 366.550781 301.761719 C 366.9375 303.757812 367.273438 305.765625 367.558594 307.78125 C 367.84375 309.792969 368.082031 311.8125 368.269531 313.839844 C 368.457031 315.863281 368.59375 317.894531 368.683594 319.925781 C 368.769531 321.957031 368.808594 323.992188 368.796875 326.023438 L 212.261719 324.941406 C 210.226562 324.929688 208.195312 324.867188 206.164062 324.75 C 204.132812 324.636719 202.105469 324.472656 200.082031 324.261719 C 198.058594 324.046875 196.042969 323.785156 194.03125 323.472656 C 192.023438 323.160156 190.019531 322.800781 188.027344 322.386719 C 186.035156 321.976562 184.054688 321.519531 182.082031 321.011719 C 180.113281 320.503906 178.15625 319.949219 176.214844 319.34375 C 174.269531 318.742188 172.34375 318.089844 170.433594 317.390625 C 168.523438 316.691406 166.628906 315.949219 164.753906 315.15625 C 162.882812 314.367188 161.027344 313.53125 159.195312 312.648438 C 157.359375 311.765625 155.550781 310.839844 153.761719 309.867188 C 151.972656 308.898438 150.210938 307.882812 148.472656 306.824219 C 146.734375 305.769531 145.023438 304.667969 143.339844 303.527344 C 141.65625 302.386719 140 301.203125 138.375 299.980469 C 136.746094 298.757812 135.152344 297.496094 133.585938 296.195312 C 132.023438 294.894531 130.492188 293.558594 128.992188 292.179688 C 127.496094 290.804688 126.03125 289.394531 124.601562 287.945312 C 123.171875 286.496094 121.777344 285.015625 120.421875 283.5 C 119.066406 281.984375 117.746094 280.433594 116.464844 278.855469 C 115.183594 277.273438 113.945312 275.660156 112.742188 274.019531 C 111.539062 272.378906 110.378906 270.707031 109.261719 269.011719 C 108.140625 267.3125 107.0625 265.585938 106.027344 263.835938 C 104.992188 262.082031 104 260.308594 103.054688 258.507812 C 102.105469 256.707031 101.203125 254.882812 100.34375 253.039062 C 99.484375 251.195312 98.671875 249.332031 97.90625 247.449219 C 97.140625 245.5625 96.417969 243.660156 95.746094 241.742188 C 95.070312 239.820312 94.445312 237.886719 93.867188 235.9375 C 93.289062 233.984375 92.757812 232.023438 92.277344 230.046875 C 91.792969 228.070312 91.359375 226.082031 90.976562 224.085938 C 90.589844 222.089844 90.253906 220.082031 89.96875 218.070312 C 89.679688 216.054688 89.445312 214.035156 89.257812 212.007812 C 89.070312 209.984375 88.933594 207.953125 88.84375 205.921875 C 88.757812 203.890625 88.71875 201.855469 88.730469 199.824219 Z M 88.730469 199.824219 " fill-opacity="1" fill-rule="nonzero"/></g></g></g><g clip-path="url(#8b79b32141)"><g clip-path="url(#517360eb4c)"><g clip-path="url(#46c87d8985)"><path fill="#c77dff" d="M 6.234375 48.9375 L 162.765625 50.019531 C 164.800781 50.035156 166.835938 50.097656 168.867188 50.210938 C 170.898438 50.324219 172.925781 50.488281 174.949219 50.703125 C 176.976562 50.917969 178.992188 51.179688 181.003906 51.492188 C 183.015625 51.804688 185.015625 52.164062 187.011719 52.578125 C 189.003906 52.988281 190.984375 53.445312 192.957031 53.953125 C 194.925781 54.464844 196.882812 55.019531 198.828125 55.625 C 200.773438 56.226562 202.699219 56.878906 204.609375 57.578125 C 206.523438 58.277344 208.414062 59.023438 210.289062 59.8125 C 212.167969 60.605469 214.019531 61.441406 215.855469 62.324219 C 217.6875 63.207031 219.5 64.136719 221.289062 65.105469 C 223.078125 66.078125 224.839844 67.09375 226.578125 68.152344 C 228.316406 69.210938 230.027344 70.308594 231.714844 71.453125 C 233.398438 72.59375 235.054688 73.777344 236.679688 75 C 238.308594 76.226562 239.902344 77.488281 241.46875 78.789062 C 243.03125 80.089844 244.5625 81.429688 246.0625 82.808594 C 247.5625 84.183594 249.027344 85.597656 250.457031 87.046875 C 251.886719 88.496094 253.277344 89.976562 254.636719 91.496094 C 255.992188 93.011719 257.308594 94.5625 258.589844 96.144531 C 259.871094 97.726562 261.113281 99.339844 262.3125 100.980469 C 263.515625 102.625 264.675781 104.296875 265.796875 105.996094 C 266.914062 107.695312 267.992188 109.421875 269.027344 111.175781 C 270.0625 112.925781 271.050781 114.703125 272 116.503906 C 272.949219 118.308594 273.851562 120.128906 274.707031 121.976562 C 275.566406 123.820312 276.378906 125.6875 277.144531 127.574219 C 277.910156 129.457031 278.628906 131.359375 279.304688 133.28125 C 279.976562 135.203125 280.601562 137.136719 281.179688 139.089844 C 281.757812 141.042969 282.289062 143.003906 282.769531 144.984375 C 283.25 146.960938 283.683594 148.949219 284.066406 150.945312 C 284.449219 152.945312 284.785156 154.953125 285.070312 156.96875 C 285.355469 158.984375 285.589844 161.003906 285.777344 163.03125 C 285.964844 165.054688 286.101562 167.085938 286.1875 169.121094 C 286.273438 171.152344 286.308594 173.1875 286.296875 175.222656 L 129.761719 174.140625 C 127.726562 174.125 125.695312 174.0625 123.660156 173.949219 C 121.628906 173.832031 119.601562 173.671875 117.578125 173.457031 C 115.554688 173.242188 113.535156 172.980469 111.523438 172.667969 C 109.515625 172.355469 107.511719 171.992188 105.519531 171.582031 C 103.523438 171.171875 101.542969 170.710938 99.570312 170.203125 C 97.601562 169.695312 95.644531 169.140625 93.699219 168.535156 C 91.757812 167.933594 89.828125 167.28125 87.917969 166.582031 C 86.003906 165.882812 84.113281 165.136719 82.238281 164.347656 C 80.363281 163.554688 78.507812 162.71875 76.671875 161.835938 C 74.839844 160.953125 73.027344 160.023438 71.238281 159.050781 C 69.453125 158.082031 67.6875 157.066406 65.949219 156.007812 C 64.210938 154.949219 62.5 153.847656 60.8125 152.707031 C 59.128906 151.566406 57.472656 150.382812 55.847656 149.160156 C 54.222656 147.933594 52.625 146.671875 51.0625 145.371094 C 49.496094 144.070312 47.964844 142.730469 46.464844 141.351562 C 44.964844 139.976562 43.503906 138.5625 42.074219 137.113281 C 40.644531 135.664062 39.25 134.179688 37.894531 132.664062 C 36.535156 131.148438 35.21875 129.597656 33.9375 128.015625 C 32.65625 126.433594 31.414062 124.820312 30.214844 123.179688 C 29.011719 121.535156 27.851562 119.863281 26.734375 118.164062 C 25.613281 116.464844 24.535156 114.738281 23.5 112.984375 C 22.464844 111.230469 21.476562 109.457031 20.527344 107.652344 C 19.582031 105.851562 18.679688 104.03125 17.820312 102.183594 C 16.960938 100.339844 16.148438 98.472656 15.382812 96.585938 C 14.617188 94.703125 13.898438 92.796875 13.226562 90.878906 C 12.550781 88.957031 11.925781 87.019531 11.347656 85.070312 C 10.769531 83.117188 10.242188 81.152344 9.757812 79.175781 C 9.277344 77.199219 8.84375 75.210938 8.460938 73.210938 C 8.078125 71.214844 7.742188 69.207031 7.457031 67.191406 C 7.171875 65.175781 6.9375 63.15625 6.75 61.128906 C 6.566406 59.101562 6.429688 57.074219 6.34375 55.039062 C 6.253906 53.007812 6.21875 50.972656 6.234375 48.9375 Z M 6.234375 48.9375 " fill-opacity="1" fill-rule="nonzero"/></g></g></g></svg>